<svg id="Layer_1" data-name="Layer 1" xmlns="http://www.w3.org/2000/svg" xmlns:xlink="http://www.w3.org/1999/xlink" viewBox="0 0 871.63 178.72"><defs><style>.cls-1{fill:none;}.cls-2{opacity:0.5;}.cls-3{fill:#929497;}.cls-4{clip-path:url(#clip-path);}.cls-5{fill:#231f20;}.cls-6{clip-path:url(#clip-path-2);}.cls-7{clip-path:url(#clip-path-3);}.cls-8{clip-path:url(#clip-path-4);}</style><clipPath id="clip-path" transform="translate(-41.76 -169.82)"><rect class="cls-1" x="20.63" y="220.65" width="447.67" height="39.09"/></clipPath><clipPath id="clip-path-2" transform="translate(-41.76 -169.82)"><rect class="cls-1" x="18.36" y="259.74" width="447.67" height="30.82"/></clipPath><clipPath id="clip-path-3" transform="translate(-41.76 -169.82)"><rect class="cls-1" x="494.1" y="224.81" width="429.03" height="33.85"/></clipPath><clipPath id="clip-path-4" transform="translate(-41.76 -169.82)"><rect class="cls-1" x="496.53" y="258.66" width="429.03" height="33.85"/></clipPath></defs><title>web</title><g class="cls-2"><path class="cls-3" d="M41.76,235.63h11.1V277.9H41.76Z" transform="translate(-41.76 -169.82)"/><path class="cls-3" d="M92.77,251.3,110,235.63h5V277.9H103.82V256.2l-11,10.09-11.1-10V277.9H70.5V235.63h5Z" transform="translate(-41.76 -169.82)"/><path class="cls-3" d="M154.89,251.3l17.19-15.67h5V277.9H165.93V256.2l-11,10.09-11.1-10V277.9H132.62V235.63h5Z" transform="translate(-41.76 -169.82)"/><path class="cls-3" d="M194.74,235.63H221v9.19H205.84v6.88h13.42v9.36H205.84v7.78H221v9.08H194.74Z" transform="translate(-41.76 -169.82)"/><path class="cls-3" d="M262.6,277.9l-6.54-11.22h-6.88V277.9h-11.1V235.63h17.81a15.52,15.52,0,0,1,10.54,26.94l9,15.33Zm-13.42-20.8h6.88a6.06,6.06,0,1,0,0-12.12h-6.88Z" transform="translate(-41.76 -169.82)"/><path class="cls-3" d="M305.55,248.59a3.25,3.25,0,0,0-3.21-3.21,3.2,3.2,0,0,0-3.16,3.21,3.15,3.15,0,0,0,3.16,3.16,13.08,13.08,0,1,1-13,13h9.86a3.16,3.16,0,0,0,3.16,3.21,3.2,3.2,0,0,0,3.21-3.16,3.25,3.25,0,0,0-3.21-3.21,13,13,0,1,1,13-13Z" transform="translate(-41.76 -169.82)"/><path class="cls-3" d="M332.33,235.63h11.1V277.9h-11.1Z" transform="translate(-41.76 -169.82)"/><path class="cls-3" d="M401.82,235.57,382.15,277.9h-5.07l-19.73-42.33h11.16l11.1,24.07,11.16-24.07Z" transform="translate(-41.76 -169.82)"/><path class="cls-3" d="M415.8,235.63h26.27v9.19H426.91v6.88h13.42v9.36H426.91v7.78h15.16v9.08H415.8Z" transform="translate(-41.76 -169.82)"/></g><g class="cls-4"><path class="cls-5" d="M45,238.63H56.1v42.27H45Z" transform="translate(-41.76 -169.82)"/><path class="cls-5" d="M96,254.3l17.19-15.67h5v42.27H107.05V259.2L96,269.29l-11.1-10v21.64H73.74V238.63h5Z" transform="translate(-41.76 -169.82)"/><path class="cls-5" d="M158.12,254.3l17.19-15.67h5v42.27H169.17V259.2l-11,10.09-11.1-10v21.64H135.86V238.63h5Z" transform="translate(-41.76 -169.82)"/><path class="cls-5" d="M198,238.63h26.27v9.19H209.07v6.88h13.42v9.36H209.07v7.78h15.16v9.08H198Z" transform="translate(-41.76 -169.82)"/><path class="cls-5" d="M265.83,280.91l-6.54-11.22h-6.88v11.22h-11.1V238.63h17.81a15.52,15.52,0,0,1,10.54,26.94l9,15.33Zm-13.42-20.8h6.88a6.06,6.06,0,1,0,0-12.12h-6.88Z" transform="translate(-41.76 -169.82)"/><path class="cls-5" d="M308.79,251.6a3.25,3.25,0,0,0-3.21-3.21,3.2,3.2,0,0,0-3.16,3.21,3.15,3.15,0,0,0,3.16,3.16,13.08,13.08,0,1,1-13,13h9.86a3.16,3.16,0,0,0,3.16,3.21,3.2,3.2,0,0,0,3.21-3.16,3.25,3.25,0,0,0-3.21-3.21,13,13,0,1,1,13-13Z" transform="translate(-41.76 -169.82)"/><path class="cls-5" d="M335.56,238.63h11.1v42.27h-11.1Z" transform="translate(-41.76 -169.82)"/><path class="cls-5" d="M405.06,238.57l-19.67,42.33h-5.07l-19.73-42.33h11.16l11.1,24.07L394,238.57Z" transform="translate(-41.76 -169.82)"/><path class="cls-5" d="M419,238.63H445.3v9.19H430.14v6.88h13.42v9.36H430.14v7.78H445.3v9.08H419Z" transform="translate(-41.76 -169.82)"/><path class="cls-5" d="M45,306.27H71.32v9.19H56.15v6.88H69.57v9.36H56.15v7.78H71.32v9.08H45Z" transform="translate(-41.76 -169.82)"/><path class="cls-5" d="M118.66,306.27l-14.09,20.24,15.5,22H106.54l-8.74-12.4L89,348.55H75.49l15.5-22L76.9,306.27H90.42l7.38,10.54,7.33-10.54Z" transform="translate(-41.76 -169.82)"/><path class="cls-5" d="M124.86,306.27h17.81a15.53,15.53,0,0,1,.23,31.06H136v11.22h-11.1ZM136,327.75h6.88a6.06,6.06,0,1,0,0-12.12H136Z" transform="translate(-41.76 -169.82)"/><path class="cls-5" d="M188.73,348.55l-6.54-11.22h-6.88v11.22h-11.1V306.27H182a15.52,15.52,0,0,1,10.54,26.94l9,15.33Zm-13.42-20.8h6.88a6.06,6.06,0,1,0,0-12.12h-6.88Z" transform="translate(-41.76 -169.82)"/><path class="cls-5" d="M207,306.27h26.27v9.19H218.09v6.88h13.42v9.36H218.09v7.78h15.16v9.08H207Z" transform="translate(-41.76 -169.82)"/><path class="cls-5" d="M256.76,319.23a3.25,3.25,0,0,0-3.21-3.21,3.2,3.2,0,0,0-3.16,3.21,3.15,3.15,0,0,0,3.16,3.16,13.08,13.08,0,1,1-13,13h9.86a3.16,3.16,0,0,0,3.16,3.21,3.2,3.2,0,0,0,3.21-3.16,3.25,3.25,0,0,0-3.21-3.21,13,13,0,1,1,13-13Z" transform="translate(-41.76 -169.82)"/><path class="cls-5" d="M290,319.23A3.25,3.25,0,0,0,286.8,316a3.2,3.2,0,0,0-3.16,3.21,3.15,3.15,0,0,0,3.16,3.16,13.08,13.08,0,1,1-13,13h9.86a3.16,3.16,0,0,0,3.16,3.21,3.2,3.2,0,0,0,3.21-3.16,3.25,3.25,0,0,0-3.21-3.21,13,13,0,1,1,13-13Z" transform="translate(-41.76 -169.82)"/><path class="cls-5" d="M307.66,306.27h11.1v42.27h-11.1Z" transform="translate(-41.76 -169.82)"/><path class="cls-5" d="M347.51,306.27a21.14,21.14,0,1,1-21.08,21.19A21.19,21.19,0,0,1,347.51,306.27Zm0,11a10.09,10.09,0,1,0,10.09,10.09A10.07,10.07,0,0,0,347.51,317.32Z" transform="translate(-41.76 -169.82)"/><path class="cls-5" d="M407.43,348.55l-20-20v20h-11.1V306.27h4.51l20,20v-20H412v42.27Z" transform="translate(-41.76 -169.82)"/><path class="cls-5" d="M436.06,319.23a3.25,3.25,0,0,0-3.21-3.21,3.2,3.2,0,0,0-3.16,3.21,3.15,3.15,0,0,0,3.16,3.16,13.08,13.08,0,1,1-13,13h9.86a3.16,3.16,0,0,0,3.16,3.21,3.2,3.2,0,0,0,3.21-3.16,3.25,3.25,0,0,0-3.21-3.21,13,13,0,1,1,13-13Z" transform="translate(-41.76 -169.82)"/></g><g class="cls-6"><path class="cls-5" d="M42.73,238.63h11.1v42.27H42.73Z" transform="translate(-41.76 -169.82)"/><path class="cls-5" d="M93.74,254.3l17.19-15.67h5v42.27H104.78V259.2l-11,10.09-11.1-10v21.64H71.47V238.63h5Z" transform="translate(-41.76 -169.82)"/><path class="cls-5" d="M155.85,254.3,173,238.63h5v42.27H166.9V259.2l-11,10.09-11.1-10v21.64H133.59V238.63h5Z" transform="translate(-41.76 -169.82)"/><path class="cls-5" d="M195.7,238.63H222v9.19H206.81v6.88h13.42v9.36H206.81v7.78H222v9.08H195.7Z" transform="translate(-41.76 -169.82)"/><path class="cls-5" d="M263.57,280.91,257,269.69h-6.88v11.22H239V238.63h17.81a15.52,15.52,0,0,1,10.54,26.94l9,15.33Zm-13.42-20.8H257A6.06,6.06,0,1,0,257,248h-6.88Z" transform="translate(-41.76 -169.82)"/><path class="cls-5" d="M306.52,251.6a3.25,3.25,0,0,0-3.21-3.21,3.2,3.2,0,0,0-3.16,3.21,3.15,3.15,0,0,0,3.16,3.16,13.08,13.08,0,1,1-13,13h9.86a3.16,3.16,0,0,0,3.16,3.21,3.2,3.2,0,0,0,3.21-3.16,3.25,3.25,0,0,0-3.21-3.21,13,13,0,1,1,13-13Z" transform="translate(-41.76 -169.82)"/><path class="cls-5" d="M333.29,238.63h11.1v42.27h-11.1Z" transform="translate(-41.76 -169.82)"/><path class="cls-5" d="M402.79,238.57l-19.67,42.33H378l-19.73-42.33h11.16l11.1,24.07,11.16-24.07Z" transform="translate(-41.76 -169.82)"/><path class="cls-5" d="M416.77,238.63H443v9.19H427.87v6.88h13.42v9.36H427.87v7.78H443v9.08H416.77Z" transform="translate(-41.76 -169.82)"/><path class="cls-5" d="M42.78,306.27H69v9.19H53.89v6.88H67.3v9.36H53.89v7.78H69v9.08H42.78Z" transform="translate(-41.76 -169.82)"/><path class="cls-5" d="M116.4,306.27,102.3,326.51l15.5,22H104.28l-8.74-12.4-8.79,12.4H73.22l15.5-22L74.63,306.27H88.16l7.38,10.54,7.33-10.54Z" transform="translate(-41.76 -169.82)"/><path class="cls-5" d="M122.6,306.27h17.81a15.53,15.53,0,0,1,.23,31.06H133.7v11.22H122.6Zm11.1,21.48h6.88a6.06,6.06,0,1,0,0-12.12H133.7Z" transform="translate(-41.76 -169.82)"/><path class="cls-5" d="M186.46,348.55l-6.54-11.22H173v11.22h-11.1V306.27h17.81a15.52,15.52,0,0,1,10.54,26.94l9,15.33ZM173,327.75h6.88a6.06,6.06,0,1,0,0-12.12H173Z" transform="translate(-41.76 -169.82)"/><path class="cls-5" d="M204.72,306.27H231v9.19H215.83v6.88h13.42v9.36H215.83v7.78H231v9.08H204.72Z" transform="translate(-41.76 -169.82)"/><path class="cls-5" d="M254.49,319.23a3.25,3.25,0,0,0-3.21-3.21,3.2,3.2,0,0,0-3.16,3.21,3.15,3.15,0,0,0,3.16,3.16,13.08,13.08,0,1,1-13,13h9.86a3.16,3.16,0,0,0,3.16,3.21,3.2,3.2,0,0,0,3.21-3.16,3.25,3.25,0,0,0-3.21-3.21,13,13,0,1,1,13-13Z" transform="translate(-41.76 -169.82)"/><path class="cls-5" d="M287.75,319.23a3.25,3.25,0,0,0-3.21-3.21,3.2,3.2,0,0,0-3.16,3.21,3.15,3.15,0,0,0,3.16,3.16,13.08,13.08,0,1,1-13,13h9.86a3.16,3.16,0,0,0,3.16,3.21,3.2,3.2,0,0,0,3.21-3.16,3.25,3.25,0,0,0-3.21-3.21,13,13,0,1,1,13-13Z" transform="translate(-41.76 -169.82)"/><path class="cls-5" d="M305.39,306.27h11.1v42.27h-11.1Z" transform="translate(-41.76 -169.82)"/><path class="cls-5" d="M345.24,306.27a21.14,21.14,0,1,1-21.08,21.19A21.19,21.19,0,0,1,345.24,306.27Zm0,11a10.09,10.09,0,1,0,10.09,10.09A10.07,10.07,0,0,0,345.24,317.32Z" transform="translate(-41.76 -169.82)"/><path class="cls-5" d="M405.16,348.55l-20-20v20H374.1V306.27h4.51l20,20v-20h11.1v42.27Z" transform="translate(-41.76 -169.82)"/><path class="cls-5" d="M433.79,319.23a3.25,3.25,0,0,0-3.21-3.21,3.2,3.2,0,0,0-3.16,3.21,3.15,3.15,0,0,0,3.16,3.16,13.08,13.08,0,1,1-13,13h9.86a3.16,3.16,0,0,0,3.16,3.21,3.2,3.2,0,0,0,3.21-3.16,3.25,3.25,0,0,0-3.21-3.21,13,13,0,1,1,13-13Z" transform="translate(-41.76 -169.82)"/></g><g class="cls-2"><path class="cls-3" d="M507.72,238.66H534v9.19H518.83v6.88h13.42v9.36H518.83v7.78H534v9.08H507.72Z" transform="translate(-41.76 -169.82)"/><path class="cls-3" d="M581.34,238.66,567.25,258.9l15.5,22H569.22l-8.74-12.4-8.79,12.4H538.16l15.5-22-14.09-20.24H553.1l7.38,10.54,7.33-10.54Z" transform="translate(-41.76 -169.82)"/><path class="cls-3" d="M587.54,238.66h17.81a15.53,15.53,0,0,1,.23,31.06h-6.93v11.22h-11.1Zm11.1,21.48h6.88a6.06,6.06,0,1,0,0-12.12h-6.88Z" transform="translate(-41.76 -169.82)"/><path class="cls-3" d="M651.4,280.94l-6.54-11.22H638v11.22h-11.1V238.66h17.81a15.52,15.52,0,0,1,10.54,26.94l9,15.33ZM638,260.14h6.88a6.06,6.06,0,1,0,0-12.12H638Z" transform="translate(-41.76 -169.82)"/><path class="cls-3" d="M669.66,238.66h26.27v9.19H680.77v6.88h13.42v9.36H680.77v7.78h15.16v9.08H669.66Z" transform="translate(-41.76 -169.82)"/><path class="cls-3" d="M719.44,251.63a3.25,3.25,0,0,0-3.21-3.21,3.2,3.2,0,0,0-3.16,3.21,3.15,3.15,0,0,0,3.16,3.16,13.08,13.08,0,1,1-13,13h9.86a3.16,3.16,0,0,0,3.16,3.21,3.2,3.2,0,0,0,3.21-3.16,3.25,3.25,0,0,0-3.21-3.21,13,13,0,1,1,13-13Z" transform="translate(-41.76 -169.82)"/><path class="cls-3" d="M752.69,251.63a3.25,3.25,0,0,0-3.21-3.21,3.2,3.2,0,0,0-3.16,3.21,3.15,3.15,0,0,0,3.16,3.16,13.08,13.08,0,1,1-13,13h9.86a3.16,3.16,0,0,0,3.16,3.21,3.2,3.2,0,0,0,3.21-3.16,3.25,3.25,0,0,0-3.21-3.21,13,13,0,1,1,13-13Z" transform="translate(-41.76 -169.82)"/><path class="cls-3" d="M770.34,238.66h11.1v42.27h-11.1Z" transform="translate(-41.76 -169.82)"/><path class="cls-3" d="M810.18,238.66a21.14,21.14,0,1,1-21.08,21.19A21.19,21.19,0,0,1,810.18,238.66Zm0,11a10.09,10.09,0,1,0,10.09,10.09A10.07,10.07,0,0,0,810.18,249.71Z" transform="translate(-41.76 -169.82)"/><path class="cls-3" d="M870.1,280.94l-20-20v20H839V238.66h4.51l20,20v-20h11.1v42.27Z" transform="translate(-41.76 -169.82)"/><path class="cls-3" d="M898.74,251.63a3.25,3.25,0,0,0-3.21-3.21,3.2,3.2,0,0,0-3.16,3.21,3.15,3.15,0,0,0,3.16,3.16,13.08,13.08,0,1,1-13,13h9.86a3.16,3.16,0,0,0,3.16,3.21,3.2,3.2,0,0,0,3.21-3.16,3.25,3.25,0,0,0-3.21-3.21,13,13,0,1,1,13-13Z" transform="translate(-41.76 -169.82)"/></g><g class="cls-7"><path class="cls-5" d="M510.08,169.88h11.1v42.27h-11.1Z" transform="translate(-41.76 -169.82)"/><path class="cls-5" d="M561.09,185.55l17.19-15.67h5v42.27H572.14v-21.7l-11,10.09-11.1-10v21.64H538.83V169.88h5Z" transform="translate(-41.76 -169.82)"/><path class="cls-5" d="M623.21,185.55l17.19-15.67h5v42.27H634.25v-21.7l-11,10.09-11.1-10v21.64H600.94V169.88h5Z" transform="translate(-41.76 -169.82)"/><path class="cls-5" d="M663.06,169.88h26.27v9.19H674.16v6.88h13.42v9.36H674.16v7.78h15.16v9.08H663.06Z" transform="translate(-41.76 -169.82)"/><path class="cls-5" d="M730.92,212.15l-6.54-11.22h-6.88v11.22H706.4V169.88h17.81a15.52,15.52,0,0,1,10.54,26.94l9,15.33Zm-13.42-20.8h6.88a6.06,6.06,0,1,0,0-12.12h-6.88Z" transform="translate(-41.76 -169.82)"/><path class="cls-5" d="M773.87,182.84a3.25,3.25,0,0,0-3.21-3.21,3.2,3.2,0,0,0-3.16,3.21,3.15,3.15,0,0,0,3.16,3.16,13.08,13.08,0,1,1-13,13h9.86a3.16,3.16,0,0,0,3.16,3.21,3.2,3.2,0,0,0,3.21-3.16,3.25,3.25,0,0,0-3.21-3.21,13,13,0,1,1,13-13Z" transform="translate(-41.76 -169.82)"/><path class="cls-5" d="M800.65,169.88h11.1v42.27h-11.1Z" transform="translate(-41.76 -169.82)"/><path class="cls-5" d="M870.14,169.82l-19.67,42.33H845.4l-19.73-42.33h11.16l11.1,24.07,11.16-24.07Z" transform="translate(-41.76 -169.82)"/><path class="cls-5" d="M884.12,169.88h26.27v9.19H895.23v6.88h13.42v9.36H895.23v7.78h15.16v9.08H884.12Z" transform="translate(-41.76 -169.82)"/><path class="cls-5" d="M510.14,237.52H536.4v9.19H521.24v6.88h13.42v9.36H521.24v7.78H536.4v9.08H510.14Z" transform="translate(-41.76 -169.82)"/><path class="cls-5" d="M583.75,237.52l-14.09,20.24,15.5,22H571.63l-8.74-12.4-8.79,12.4H540.57l15.5-22L542,237.52h13.53l7.38,10.54,7.33-10.54Z" transform="translate(-41.76 -169.82)"/><path class="cls-5" d="M590,237.52h17.81a15.53,15.53,0,0,1,.23,31.06h-6.93v11.22H590ZM601.05,259h6.88a6.06,6.06,0,1,0,0-12.12h-6.88Z" transform="translate(-41.76 -169.82)"/><path class="cls-5" d="M653.81,279.79l-6.54-11.22H640.4v11.22h-11.1V237.52h17.81a15.52,15.52,0,0,1,10.54,26.94l9,15.33ZM640.4,259h6.88a6.06,6.06,0,1,0,0-12.12H640.4Z" transform="translate(-41.76 -169.82)"/><path class="cls-5" d="M672.08,237.52h26.27v9.19H683.18v6.88h13.42v9.36H683.18v7.78h15.16v9.08H672.08Z" transform="translate(-41.76 -169.82)"/><path class="cls-5" d="M721.85,250.48a3.25,3.25,0,0,0-3.21-3.21,3.2,3.2,0,0,0-3.16,3.21,3.15,3.15,0,0,0,3.16,3.16,13.08,13.08,0,1,1-13,13h9.86a3.16,3.16,0,0,0,3.16,3.21,3.2,3.2,0,0,0,3.21-3.16,3.25,3.25,0,0,0-3.21-3.21,13,13,0,1,1,13-13Z" transform="translate(-41.76 -169.82)"/><path class="cls-5" d="M755.1,250.48a3.25,3.25,0,0,0-3.21-3.21,3.2,3.2,0,0,0-3.16,3.21,3.15,3.15,0,0,0,3.16,3.16,13.08,13.08,0,1,1-13,13h9.86a3.16,3.16,0,0,0,3.16,3.21,3.2,3.2,0,0,0,3.21-3.16,3.25,3.25,0,0,0-3.21-3.21,13,13,0,1,1,13-13Z" transform="translate(-41.76 -169.82)"/><path class="cls-5" d="M772.75,237.52h11.1v42.27h-11.1Z" transform="translate(-41.76 -169.82)"/><path class="cls-5" d="M812.6,237.52a21.14,21.14,0,1,1-21.08,21.19A21.19,21.19,0,0,1,812.6,237.52Zm0,11a10.09,10.09,0,1,0,10.09,10.09A10.07,10.07,0,0,0,812.6,248.57Z" transform="translate(-41.76 -169.82)"/><path class="cls-5" d="M872.51,279.79l-20-20v20h-11.1V237.52H846l20,20v-20h11.1v42.27Z" transform="translate(-41.76 -169.82)"/><path class="cls-5" d="M901.15,250.48a3.25,3.25,0,0,0-3.21-3.21,3.2,3.2,0,0,0-3.16,3.21,3.15,3.15,0,0,0,3.16,3.16,13.08,13.08,0,1,1-13,13h9.86a3.16,3.16,0,0,0,3.16,3.21,3.2,3.2,0,0,0,3.21-3.16,3.25,3.25,0,0,0-3.21-3.21,13,13,0,1,1,13-13Z" transform="translate(-41.76 -169.82)"/></g><g class="cls-8"><path class="cls-5" d="M512.51,169.88h11.1v42.27h-11.1Z" transform="translate(-41.76 -169.82)"/><path class="cls-5" d="M563.52,185.55l17.19-15.67h5v42.27H574.57v-21.7l-11,10.09-11.1-10v21.64H541.26V169.88h5Z" transform="translate(-41.76 -169.82)"/><path class="cls-5" d="M625.64,185.55l17.19-15.67h5v42.27H636.68v-21.7l-11,10.09-11.1-10v21.64H603.37V169.88h5Z" transform="translate(-41.76 -169.82)"/><path class="cls-5" d="M665.49,169.88h26.27v9.19H676.59v6.88H690v9.36H676.59v7.78h15.16v9.08H665.49Z" transform="translate(-41.76 -169.82)"/><path class="cls-5" d="M733.35,212.15l-6.54-11.22h-6.88v11.22h-11.1V169.88h17.81a15.52,15.52,0,0,1,10.54,26.94l9,15.33Zm-13.42-20.8h6.88a6.06,6.06,0,1,0,0-12.12h-6.88Z" transform="translate(-41.76 -169.82)"/><path class="cls-5" d="M776.3,182.84a3.25,3.25,0,0,0-3.21-3.21,3.2,3.2,0,0,0-3.16,3.21,3.15,3.15,0,0,0,3.16,3.16,13.08,13.08,0,1,1-13,13h9.86a3.16,3.16,0,0,0,3.16,3.21,3.2,3.2,0,0,0,3.21-3.16,3.25,3.25,0,0,0-3.21-3.21,13,13,0,1,1,13-13Z" transform="translate(-41.76 -169.82)"/><path class="cls-5" d="M803.08,169.88h11.1v42.27h-11.1Z" transform="translate(-41.76 -169.82)"/><path class="cls-5" d="M872.58,169.82,852.9,212.15h-5.07L828.1,169.82h11.16l11.1,24.07,11.16-24.07Z" transform="translate(-41.76 -169.82)"/><path class="cls-5" d="M886.56,169.88h26.27v9.19H897.66v6.88h13.42v9.36H897.66v7.78h15.16v9.08H886.56Z" transform="translate(-41.76 -169.82)"/><path class="cls-5" d="M512.57,237.52h26.27v9.19H523.67v6.88h13.42v9.36H523.67v7.78h15.16v9.08H512.57Z" transform="translate(-41.76 -169.82)"/><path class="cls-5" d="M586.18,237.52l-14.09,20.24,15.5,22H574.06l-8.74-12.4-8.79,12.4H543l15.5-22-14.09-20.24h13.53l7.38,10.54,7.33-10.54Z" transform="translate(-41.76 -169.82)"/><path class="cls-5" d="M592.38,237.52h17.81a15.53,15.53,0,0,1,.23,31.06h-6.93v11.22h-11.1ZM603.49,259h6.88a6.06,6.06,0,1,0,0-12.12h-6.88Z" transform="translate(-41.76 -169.82)"/><path class="cls-5" d="M656.24,279.79l-6.54-11.22h-6.88v11.22h-11.1V237.52h17.81a15.52,15.52,0,0,1,10.54,26.94l9,15.33ZM642.83,259h6.88a6.06,6.06,0,1,0,0-12.12h-6.88Z" transform="translate(-41.76 -169.82)"/><path class="cls-5" d="M674.51,237.52h26.27v9.19H685.61v6.88H699v9.36H685.61v7.78h15.16v9.08H674.51Z" transform="translate(-41.76 -169.82)"/><path class="cls-5" d="M724.28,250.48a3.25,3.25,0,0,0-3.21-3.21,3.2,3.2,0,0,0-3.16,3.21,3.15,3.15,0,0,0,3.16,3.16,13.08,13.08,0,1,1-13,13h9.86a3.16,3.16,0,0,0,3.16,3.21,3.2,3.2,0,0,0,3.21-3.16,3.25,3.25,0,0,0-3.21-3.21,13,13,0,1,1,13-13Z" transform="translate(-41.76 -169.82)"/><path class="cls-5" d="M757.53,250.48a3.25,3.25,0,0,0-3.21-3.21,3.2,3.2,0,0,0-3.16,3.21,3.15,3.15,0,0,0,3.16,3.16,13.08,13.08,0,1,1-13,13h9.86a3.16,3.16,0,0,0,3.16,3.21,3.2,3.2,0,0,0,3.21-3.16,3.25,3.25,0,0,0-3.21-3.21,13,13,0,1,1,13-13Z" transform="translate(-41.76 -169.82)"/><path class="cls-5" d="M775.18,237.52h11.1v42.27h-11.1Z" transform="translate(-41.76 -169.82)"/><path class="cls-5" d="M815,237.52a21.14,21.14,0,1,1-21.08,21.19A21.19,21.19,0,0,1,815,237.52Zm0,11a10.09,10.09,0,1,0,10.09,10.09A10.07,10.07,0,0,0,815,248.57Z" transform="translate(-41.76 -169.82)"/><path class="cls-5" d="M874.94,279.79l-20-20v20h-11.1V237.52h4.51l20,20v-20h11.1v42.27Z" transform="translate(-41.76 -169.82)"/><path class="cls-5" d="M903.58,250.48a3.25,3.25,0,0,0-3.21-3.21,3.2,3.2,0,0,0-3.16,3.21,3.15,3.15,0,0,0,3.16,3.16,13.08,13.08,0,1,1-13,13h9.86a3.16,3.16,0,0,0,3.16,3.21,3.2,3.2,0,0,0,3.21-3.16,3.25,3.25,0,0,0-3.21-3.21,13,13,0,1,1,13-13Z" transform="translate(-41.76 -169.82)"/></g></svg>