<svg id="Layer_1" data-name="Layer 1" xmlns="http://www.w3.org/2000/svg" viewBox="0 0 868.72 45.37"><defs><style>.cls-1{fill:none;}.cls-2{fill:#929497;}.cls-3{fill:#fff;}</style></defs><title>webwhite</title><polygon class="cls-1" points="130.08 0.37 95.64 0.37 112.89 16.04 130.08 0.37"/><polygon class="cls-1" points="105.02 23.63 105.02 24.11 105.55 24.11 105.02 23.63"/><polygon class="cls-1" points="67.96 0.37 33.52 0.37 50.77 16.04 67.96 0.37"/><path class="cls-1" d="M559.24,22.43h5.44a5.87,5.87,0,0,0,2.5-4.9,6.07,6.07,0,0,0-6.09-6.1h-4.86v10h3Z" transform="translate(-0.24 -0.06)"/><path class="cls-1" d="M598.24,22.43H604a5.87,5.87,0,0,0,2.5-4.9,6.07,6.07,0,0,0-6.09-6.1h-4.2v10h2Z" transform="translate(-0.24 -0.06)"/><polygon class="cls-1" points="42.9 23.63 42.9 24.11 43.43 24.11 42.9 23.63"/><polygon class="cls-1" points="329.75 3.37 338.54 22.41 348.75 0.37 326.54 0.37 327.9 3.37 329.75 3.37"/><path class="cls-1" d="M770.42,31.66a10,10,0,0,0-7.66-18.43,9.84,9.84,0,0,0-4.62,8.34v-.14h2.43A9.89,9.89,0,0,0,770.42,31.66Z" transform="translate(-0.24 -0.06)"/><path class="cls-1" d="M220.39,15.45a6,6,0,0,0-.61-2.63,6.1,6.1,0,0,0-2.24-.39h-7.3v9h4.06A6,6,0,0,0,220.39,15.45Z" transform="translate(-0.24 -0.06)"/><polygon class="cls-2" points="1 24.37 3 24.37 3 3.37 11 3.37 11 0.37 0 0.37 0 42.37 1 42.37 1 24.37"/><polygon class="cls-2" points="63 24.37 62.2 24.37 62 24.46 62 42.37 63 42.37 63 24.37"/><polygon class="cls-2" points="65.05 23.57 64.47 24.11 65.05 24.11 65.05 23.57"/><polygon class="cls-2" points="29 42.37 29 42.37 29 24.37 32 24.37 32 3.37 34.49 3.37 36.76 3.37 54 19.04 71.19 3.37 73 3.37 73 0.37 67.96 0.37 50.77 16.04 33.52 0.37 29 0.37 29 42.37"/><polygon class="cls-2" points="125 24.37 124.31 24.37 124 24.46 124 42.37 125 42.37 125 24.37"/><polygon class="cls-2" points="127.17 23.57 126.58 24.11 127.17 24.11 127.17 23.57"/><polygon class="cls-2" points="91 42.37 92 42.37 92 24.37 94 24.37 94 3.37 96.6 3.37 98.87 3.37 116.12 19.04 133.31 3.37 135 3.37 135 0.37 130.08 0.37 112.89 16.04 95.64 0.37 91 0.37 91 42.37"/><rect class="cls-2" x="167" y="16.37" width="10" height="3"/><polygon class="cls-2" points="153 42.37 154 42.37 154 24.37 156 24.37 156 3.37 179 3.37 179 0.37 153 0.37 153 42.37"/><polygon class="cls-2" points="167.07 36.37 179 36.37 179 33.37 165 33.37 165 36.37 167.07 36.37"/><path class="cls-2" d="M196.24,42.43h1v-18h2v-21h18.13a15.45,15.45,0,0,1,8.85,2.78A15.53,15.53,0,0,0,214.13.43H196.24Z" transform="translate(-0.24 -0.06)"/><path class="cls-2" d="M210.66,24.43h9a6.31,6.31,0,0,0,4-5.79,6.15,6.15,0,0,0-3.85-5.73,5.73,5.73,0,0,1,.61,2.57,5.94,5.94,0,0,1-6.09,5.95h-4.06v3h.42Z" transform="translate(-0.24 -0.06)"/><path class="cls-2" d="M232.85,42.43h.79l-7.5-12.88c-.17.17-.32.37-.49.53Z" transform="translate(-0.24 -0.06)"/><path class="cls-2" d="M247.62,13.08A12.89,12.89,0,0,0,253.5,24a13,13,0,0,1,17.44-18.8,13,13,0,0,0-23.33,7.92Z" transform="translate(-0.24 -0.06)"/><path class="cls-2" d="M263.77,12.81c0,.07,0,.14,0,.21h1.12a3.11,3.11,0,0,0-1.1-.21Z" transform="translate(-0.24 -0.06)"/><path class="cls-2" d="M250.79,32.43h7.6a3,3,0,0,0,3.16,3.1,3.21,3.21,0,0,0,2.17-5.58,3.31,3.31,0,0,1-3.14,2.59,3,3,0,0,1-3.16-3.11h-9.86a13.49,13.49,0,0,0,1.22,5.6,13,13,0,0,1-.25-2.6Z" transform="translate(-0.24 -0.06)"/><path class="cls-2" d="M271.75,24.33a13.22,13.22,0,0,1,1.6,2.65,16.64,16.64,0,0,0-.79-2.55h-.83S271.74,24.32,271.75,24.33Z" transform="translate(-0.24 -0.06)"/><path class="cls-2" d="M263.81,19.18a12.85,12.85,0,0,1,7,2.1l-.06-.09a13,13,0,0,0-10.11-5A3.14,3.14,0,0,0,263.81,19.18Z" transform="translate(-0.24 -0.06)"/><polygon class="cls-2" points="290 42.37 291 42.37 291 24.37 294 24.37 294 3.37 301 3.37 301 0.37 290 0.37 290 42.37"/><polygon class="cls-2" points="326.62 24.37 328.45 24.37 318.59 3.37 327.48 3.37 327.9 3.37 326.54 0.37 315.38 0.37 326.62 24.37"/><polygon class="cls-2" points="339.51 24.37 337.24 24.37 338.58 27.27 339.93 24.37 342.2 24.37 352.01 3.37 358.43 3.37 359.8 0.37 348.75 0.37 338.54 22.33 339.51 24.37"/><polygon class="cls-2" points="388.14 36.37 400 36.37 400 33.37 386 33.37 386 36.37 388.14 36.37"/><rect class="cls-2" x="388" y="16.37" width="10" height="3"/><polygon class="cls-2" points="374 42.37 375 42.37 375 24.37 377 24.37 377 3.37 400 3.37 400 0.37 374 0.37 374 42.37"/><polygon class="cls-3" points="3 24.37 11.83 24.37 14 24.37 14 3.37 11.83 3.37 10.86 3.37 3 3.37 3 24.37"/><polygon class="cls-3" points="54 19.04 36.76 3.37 34.49 3.37 32 3.37 32 24.37 40.63 24.37 41.16 24.37 43 24.37 43 23.63 43.43 24.37 62.2 24.37 62.78 24.37 64.47 24.37 65 23.57 65 24.37 73.94 24.37 76 24.37 76 3.37 73.94 3.37 72.98 3.37 71.19 3.37 54 19.04"/><polygon class="cls-3" points="116.12 19.04 98.87 3.37 96.6 3.37 94 3.37 94 24.37 102.75 24.37 103.28 24.37 105 24.37 105 23.63 105.55 24.37 124.31 24.37 124.9 24.37 126.58 24.37 127 23.57 127 24.37 136.06 24.37 138 24.37 138 3.37 136.06 3.37 135.09 3.37 133.31 3.37 116.12 19.04"/><polygon class="cls-3" points="156 24.37 178.22 24.37 180 24.37 180 19.37 178.22 19.37 177.25 19.37 167 19.37 167 16.06 167 12.37 179.97 12.37 182 12.37 182 3.37 179.97 3.37 179 3.37 156 3.37 156 24.37"/><path class="cls-3" d="M215.1,3.43H199.24v21h11v-12h7.3a6.11,6.11,0,0,1,2.24.42,6.23,6.23,0,0,1,3.85,5.79,6.31,6.31,0,0,1-4,5.79h12.23a17.17,17.17,0,0,0,1.06-5.68A15.35,15.35,0,0,0,217.37,3.43Z" transform="translate(-0.24 -0.06)"/><path class="cls-3" d="M250.85,16.08a13.32,13.32,0,0,0,2.65,8c.05.07.1.34.15.34H274a16.83,16.83,0,0,0-3.15-3,12.9,12.9,0,0,0-7-2.16,3.17,3.17,0,0,1-3.14-3c0-.05,0-.12,0-.18a3.21,3.21,0,0,1,3.11-3.22h0a3.4,3.4,0,0,1,1.1.41,3,3,0,0,1,2.12,3.2h9.81a12.71,12.71,0,0,0-5.89-11.07,13.13,13.13,0,0,0-7.13-2.2A12.86,12.86,0,0,0,250.85,16.08Z" transform="translate(-0.24 -0.06)"/><polygon class="cls-3" points="294 24.37 302.4 24.37 305 24.37 305 3.37 302.4 3.37 301.43 3.37 294 3.37 294 24.37"/><polygon class="cls-3" points="342.2 24.37 350.95 24.37 353.22 24.37 363.06 3.37 360.79 3.37 358.43 3.37 352.01 3.37 342.2 24.37"/><polygon class="cls-3" points="339.51 24.37 338.54 22.36 329.75 3.37 327.9 3.37 327.48 3.37 318.59 3.37 328.45 24.37 337.24 24.37 339.51 24.37"/><polygon class="cls-3" points="377 24.37 399.29 24.37 402 24.37 402 19.37 399.29 19.37 398.32 19.37 388 19.37 388 16.06 388 12.37 401.04 12.37 403 12.37 403 3.37 401.04 3.37 400.07 3.37 377 3.37 377 24.37"/><polygon class="cls-3" points="2.99 24.37 1 24.37 1 42.27 1 45.37 2.99 45.37 12 45.37 12 24.37 2.99 24.37"/><polygon class="cls-3" points="43.43 24.37 42.9 24.37 41.16 24.37 51.74 33.8 61.82 24.65 62.2 24.37 43.43 24.37"/><polygon class="cls-3" points="65.05 24.37 64.47 24.37 63 24.37 63 42.27 63 45.37 65.05 45.37 74 45.37 74 24.37 65.05 24.37"/><polygon class="cls-3" points="31.74 24.37 29 24.37 29 42.27 29 45.37 31.74 45.37 41 45.37 41 24.37 31.74 24.37"/><polygon class="cls-3" points="93.86 24.37 92 24.37 92 42.27 92 45.37 93.86 45.37 103 45.37 103 24.37 93.86 24.37"/><polygon class="cls-3" points="105.55 24.37 105.02 24.37 103.28 24.37 113.85 33.8 123.93 24.65 124.31 24.37 105.55 24.37"/><polygon class="cls-3" points="127.17 24.37 126.58 24.37 125 24.37 125 42.27 125 45.37 127.17 45.37 136 45.37 136 24.37 127.17 24.37"/><polygon class="cls-3" points="155.97 24.37 154 24.37 154 42.27 154 45.37 155.97 45.37 180 45.37 180 36.37 179 36.37 167.07 36.37 165 36.37 165 33.2 165 28.37 167.07 28.37 178 28.37 178 24.37 155.97 24.37"/><path class="cls-3" d="M219.64,24.43H197.24v21h11v-11h7l6.54,11H234.6l-1.75-3L225.64,30c.17-.16.33-.22.49-.39a15.38,15.38,0,0,0,3.46-5.21Z" transform="translate(-0.24 -0.06)"/><path class="cls-3" d="M271.73,24.43H251.39a12.72,12.72,0,0,0,10.16,4.75,3.15,3.15,0,0,1,3.21,3.12,3.28,3.28,0,0,1-3.21,3.25,3,3,0,0,1-3.16-3.12h-9.86a11.86,11.86,0,0,0,.25,2.49,13,13,0,0,0,25.79-2.52,13.23,13.23,0,0,0-1.22-5.6,11.9,11.9,0,0,0-1.6-2.46S271.73,24.43,271.73,24.43Z" transform="translate(-0.24 -0.06)"/><polygon class="cls-3" points="293.56 24.37 291 24.37 291 42.27 291 45.37 293.56 45.37 302 45.37 302 24.37 293.56 24.37"/><polygon class="cls-3" points="342.2 24.37 339.93 24.37 338.58 27.27 337.24 24.37 328.45 24.37 326.62 24.37 326.18 24.37 336.05 45.37 338.31 45.37 341.12 45.37 350.95 24.37 342.2 24.37"/><polygon class="cls-3" points="377.04 24.37 375 24.37 375 42.27 375 45.37 377.04 45.37 401 45.37 401 36.37 400.07 36.37 388.14 36.37 386 36.37 386 33.2 386 28.37 388.14 28.37 399 28.37 399 24.37 377.04 24.37"/><polygon class="cls-2" points="477 9.37 477 11.37 489 11.37 489 9.37 479.01 9.37 477 9.37"/><polygon class="cls-2" points="463 44.37 489 44.37 489 42.37 468 42.37 468 21.37 465 21.37 465 1.37 463 1.37 463 44.37"/><rect class="cls-2" x="479" y="26.37" width="9" height="1"/><polygon class="cls-2" points="524.76 1.37 523.15 1.37 517.42 9.77 518.23 10.85 524.76 1.37"/><polygon class="cls-2" points="509 21.97 493.5 44.37 507.03 44.37 507.84 42.37 498.34 42.37 513.21 21.37 510.78 21.37 511.41 20.46 498.12 1.37 494.91 1.37 509 21.97"/><polygon class="cls-2" points="520.66 30.19 517.83 34.51 524.56 44.37 538.09 44.37 537.28 42.37 529.4 42.37 520.66 30.19"/><polygon class="cls-2" points="543 42.37 543 44.37 554 44.37 554 42.37 548 42.37 548 21.37 545 21.37 545 1.37 543 1.37 543 42.74 542.93 42.37 543 42.37"/><path class="cls-2" d="M561.1,11.43a6.07,6.07,0,0,1,6.09,6.1,5.87,5.87,0,0,1-2.5,4.9h1.26a2,2,0,0,0,2-1h-2.43c2.38-1,4.07-2.63,4.07-5.3,0-3.38-2.71-5.7-6.09-5.7h-7.27v1Z" transform="translate(-0.24 -0.06)"/><path class="cls-2" d="M563.57,31.43h-4.33v1h1.91A14.93,14.93,0,0,0,567,31.3c-.34,0-.68.12-1,.12Z" transform="translate(-0.24 -0.06)"/><path class="cls-2" d="M600.44,11.43a6.07,6.07,0,0,1,6.09,6.1,5.87,5.87,0,0,1-2.5,4.9h1.26a2,2,0,0,0,2-1h-2.43c2.38-1,4.07-2.63,4.07-5.3,0-3.38-2.71-5.7-6.09-5.7h-6.61v1Z" transform="translate(-0.24 -0.06)"/><polygon class="cls-2" points="582 44.37 593 44.37 593 42.37 587 42.37 587 21.37 585 21.37 585 1.37 582 1.37 582 44.37"/><polygon class="cls-2" points="605.04 31.37 602.61 31.37 598 31.37 598 32.37 600.2 32.37 606.74 44.37 619.53 44.37 618.87 42.37 611.58 42.37 605.04 31.37"/><polygon class="cls-2" points="625 44.37 651 44.37 651 42.37 630 42.37 630 21.37 627 21.37 627 1.37 625 1.37 625 44.37"/><rect class="cls-2" x="641" y="26.37" width="9" height="1"/><polygon class="cls-2" points="639 9.37 639 11.37 651 11.37 651 9.37 640.95 9.37 639 9.37"/><path class="cls-2" d="M663.68,30.43h-4.9c0,8,5.81,13.36,13,13.36a13,13,0,0,0,5.42-1.06c-.19,0-.38-.14-.57-.14A13,13,0,0,1,663.68,30.43Z" transform="translate(-0.24 -0.06)"/><path class="cls-2" d="M677.43,13.43a3.23,3.23,0,0,0-5.6-2.11c1.74,0,3.19,2.11,3.19,3.11h9.81a6,6,0,0,1-.06-1h-7.34Z" transform="translate(-0.24 -0.06)"/><path class="cls-2" d="M671.8,27.72A3.25,3.25,0,0,1,675,30.94a3.06,3.06,0,0,1-.31,1.33,3.11,3.11,0,0,0,1.94.69,3.2,3.2,0,0,0,3.21-3.16,3.38,3.38,0,0,0-3.21-3.37,12.92,12.92,0,0,1-10.13-5h-2.43a12.08,12.08,0,0,1-2.83-8,12.85,12.85,0,0,1,6.22-11.05,13,13,0,0,0,4.33,25.31Z" transform="translate(-0.24 -0.06)"/><path class="cls-2" d="M710.68,13.43a3.23,3.23,0,0,0-5.6-2.11c1.74,0,3.19,2.11,3.19,3.11h9.81a6,6,0,0,1-.06-1h-7.34Z" transform="translate(-0.24 -0.06)"/><path class="cls-2" d="M705.06,27.72a3.25,3.25,0,0,1,3.21,3.21,3.06,3.06,0,0,1-.31,1.33,3.11,3.11,0,0,0,1.94.69,3.2,3.2,0,0,0,3.21-3.16,3.38,3.38,0,0,0-3.21-3.37,12.92,12.92,0,0,1-10.13-5h-2.43a12.08,12.08,0,0,1-2.83-8,12.85,12.85,0,0,1,6.22-11.05,13,13,0,0,0,4.33,25.31Z" transform="translate(-0.24 -0.06)"/><path class="cls-2" d="M696.94,30.43H692c0,8,5.81,13.36,13,13.36a13,13,0,0,0,5.42-1.06c-.19,0-.38-.14-.57-.14A13,13,0,0,1,696.94,30.43Z" transform="translate(-0.24 -0.06)"/><polygon class="cls-2" points="726 44.37 737 44.37 737 42.37 731 42.37 731 21.37 728 21.37 728 1.37 726 1.37 726 44.37"/><path class="cls-2" d="M744.68,22.93A21.05,21.05,0,0,0,773,42.73a21,21,0,0,1-23.45-21.09s0-.21,0-.21H747.1A20.88,20.88,0,0,1,758,3.11,21.41,21.41,0,0,0,744.68,22.93Z" transform="translate(-0.24 -0.06)"/><path class="cls-2" d="M775.85,22.88a10.12,10.12,0,0,1-5.43,8.94c.06,0,.12-.14.18-.14A10,10,0,0,0,780.7,21.43h-2.43v.15a10,10,0,0,0-15.5-8.37,10,10,0,0,1,3-.44A10.09,10.09,0,0,1,775.85,22.88Z" transform="translate(-0.24 -0.06)"/><polygon class="cls-2" points="810 28.8 825.44 44.37 830 44.37 830 42.53 810 22.8 810 28.8"/><polygon class="cls-2" points="794 44.37 805 44.37 805 42.37 799 42.37 799 21.37 797 21.37 797 1.37 794 1.37 794 44.37"/><polygon class="cls-2" points="821 1.37 819 1.37 819 18.09 821 20.49 821 1.37"/><path class="cls-2" d="M843,30.43h-4.9c0,8,5.81,13.36,13,13.36a13,13,0,0,0,5.42-1.06c-.19,0-.38-.14-.57-.14A13,13,0,0,1,843,30.43Z" transform="translate(-0.24 -0.06)"/><path class="cls-2" d="M851.1,27.72a3.25,3.25,0,0,1,3.21,3.21,3.06,3.06,0,0,1-.31,1.33,3.11,3.11,0,0,0,1.94.69,3.2,3.2,0,0,0,3.21-3.16,3.38,3.38,0,0,0-3.21-3.37,12.92,12.92,0,0,1-10.13-5h-2.43a12.08,12.08,0,0,1-2.83-8,12.85,12.85,0,0,1,6.22-11.05,13,13,0,0,0,4.33,25.31Z" transform="translate(-0.24 -0.06)"/><path class="cls-2" d="M856.73,13.43a3.23,3.23,0,0,0-5.6-2.11c1.74,0,3.19,2.11,3.19,3.11h9.81a6,6,0,0,1-.06-1h-7.34Z" transform="translate(-0.24 -0.06)"/><polygon class="cls-3" points="467.91 21.37 490 21.37 490 16.37 479.01 16.37 477 16.37 477 10.87 477 9.37 479.01 9.37 489.33 9.37 492 9.37 492 0.37 467.91 0.37 465 0.37 465 1.68 465 21.37 467.91 21.37"/><polygon class="cls-3" points="510.78 21.37 513.21 21.37 525.63 21.37 525 20.54 539.09 0.37 527.99 0.37 525.56 0.37 524.76 1.6 518.23 11.04 517.42 9.82 510.85 0.37 499.75 0.37 497.32 0.37 498.12 1.6 511.41 20.58 510.78 21.37"/><path class="cls-3" d="M548,21.43h8.28v-11h7.27c3.38,0,6.09,2.32,6.09,5.7,0,2.67-1.69,4.3-4.07,5.3h12.31c.67-1,1.06-3.55,1.06-5.51A15.53,15.53,0,0,0,563.34.43h-18.1v21Z" transform="translate(-0.24 -0.06)"/><path class="cls-3" d="M587.31,21.43h8.94v-11h6.61c3.38,0,6.09,2.32,6.09,5.7,0,2.67-1.69,4.3-4.07,5.3h12.3c.68-1,1.07-3.54,1.07-5.51A15.53,15.53,0,0,0,602.69.43H585.24v21Z" transform="translate(-0.24 -0.06)"/><polygon class="cls-3" points="629.85 21.37 652 21.37 652 16.37 640.95 16.37 639 16.37 639 10.87 639 9.37 640.95 9.37 651.27 9.37 654 9.37 654 0.37 629.85 0.37 627 0.37 627 1.68 627 21.37 629.85 21.37"/><path class="cls-3" d="M661.25,13.46a12.08,12.08,0,0,0,2.83,8h20.34v.15a12.89,12.89,0,0,0-10.2-4.94,3.12,3.12,0,0,1-3.16-3.12,3.34,3.34,0,0,1,3.16-3.25,3,3,0,0,1,3.21,3.16h9.81a13,13,0,0,0-13-12.9,12.87,12.87,0,0,0-13,12.93Z" transform="translate(-0.24 -0.06)"/><path class="cls-3" d="M694.51,13.46a12.08,12.08,0,0,0,2.83,8h20.34v.15a12.89,12.89,0,0,0-10.2-4.94,3.12,3.12,0,0,1-3.16-3.12,3.34,3.34,0,0,1,3.16-3.25,3,3,0,0,1,3.21,3.16h9.81a13,13,0,0,0-13-12.9,12.87,12.87,0,0,0-13,12.93Z" transform="translate(-0.24 -0.06)"/><polygon class="cls-3" points="730.52 21.37 739 21.37 739 0.37 730.52 0.37 728 0.37 728 1.68 728 21.37 730.52 21.37"/><path class="cls-3" d="M747.1,21.43h11v.15a10.06,10.06,0,0,1,20.12,0v-.13h11a21.49,21.49,0,0,0-21.13-21,20.94,20.94,0,0,0-21.08,21Z" transform="translate(-0.24 -0.06)"/><polygon class="cls-3" points="799.23 21.37 832 21.37 832 0.37 823.74 0.37 821 0.37 821 1.68 821 20.49 818.75 18 801.3 0.37 799.23 0.37 797 0.37 797 1.68 797 21.37 799.23 21.37"/><path class="cls-3" d="M840.55,13.46a12.08,12.08,0,0,0,2.83,8h20.34v.15a12.89,12.89,0,0,0-10.2-4.94,3.12,3.12,0,0,1-3.16-3.12,3.34,3.34,0,0,1,3.16-3.25,3,3,0,0,1,3.21,3.16h9.81a13,13,0,0,0-13-12.9,12.87,12.87,0,0,0-13,12.93Z" transform="translate(-0.24 -0.06)"/><polygon class="cls-3" points="468 21.37 468 42.37 489.33 42.37 491.74 42.37 494 42.37 494 33.37 491.74 33.37 479 33.37 479 27.1 479 26.37 487.58 26.37 489.99 26.37 492 26.37 492 21.37 489.99 21.37 468 21.37"/><polygon class="cls-3" points="513.21 21.37 498.34 42.37 507.84 42.37 509.44 42.37 511.87 42.37 517.83 34.19 520.66 30.08 529.4 42.37 537.28 42.37 540.5 42.37 542.88 42.37 542.93 42.37 542.88 42.37 528.06 21.37 525.63 21.37 513.21 21.37"/><path class="cls-3" d="M568,21.43a2,2,0,0,1-2,1h-6.7v-1h-11v21h11v-11H566c.34,0,.68-.07,1-.09a14.67,14.67,0,0,0,13.25-9.91H568Z" transform="translate(-0.24 -0.06)"/><path class="cls-3" d="M607.3,21.43a2,2,0,0,1-2,1h-7v-1h-11v21h11v-11h7l6.54,11h12.79l-9-15.26c1.71-1.59,3.07-2.74,3.94-5.74H607.3Z" transform="translate(-0.24 -0.06)"/><polygon class="cls-3" points="630 21.37 630 42.37 651.27 42.37 653.68 42.37 656 42.37 656 33.37 653.68 33.37 641 33.37 641 27.1 641 26.37 649.52 26.37 651.93 26.37 654 26.37 654 21.37 651.93 21.37 630 21.37"/><path class="cls-3" d="M666.51,21.43a12.92,12.92,0,0,0,10.13,5,3.32,3.32,0,0,1,3.21,3.29,3.06,3.06,0,0,1-5.15,2.37,3.55,3.55,0,0,1-1.22-2.66h-9.86a8.56,8.56,0,0,0,.06,1.3,13,13,0,0,0,13,12.07c.19,0,.38,0,.57,0a13,13,0,0,0,12.45-13.07c0-3.1-1-5.31-2.82-8.31H666.51Z" transform="translate(-0.24 -0.06)"/><path class="cls-3" d="M699.77,21.43a12.92,12.92,0,0,0,10.13,5,3.32,3.32,0,0,1,3.21,3.29A3.06,3.06,0,0,1,708,32.09a3.55,3.55,0,0,1-1.22-2.66h-9.86a8.56,8.56,0,0,0,.06,1.3,13,13,0,0,0,13,12.07c.19,0,.38,0,.57,0a13,13,0,0,0,12.45-13.07c0-3.1-1-5.31-2.82-8.31H699.77Z" transform="translate(-0.24 -0.06)"/><polygon class="cls-3" points="731 21.37 731 42.37 736.78 42.37 739.19 42.37 742 42.37 742 21.37 739.19 21.37 731 21.37"/><path class="cls-3" d="M780.7,21.43a10,10,0,0,1-10.09,10.24c-.06,0-.12-.08-.18-.09a9.83,9.83,0,0,1-9.85-10.16h-11s0,.19,0,.21a21.11,21.11,0,0,0,21.08,21.16,21.43,21.43,0,0,0,2.37-.1,21.21,21.21,0,0,0,18.77-21.07s0-.19,0-.19h-11Z" transform="translate(-0.24 -0.06)"/><polygon class="cls-3" points="799 21.37 799 42.37 805.49 42.37 807.9 42.37 810 42.37 810 28.8 810 22.8 829.84 42.31 830.28 42.37 832.42 42.37 835 42.37 835 21.37 832.42 21.37 799 21.37"/><path class="cls-3" d="M845.81,21.43a12.92,12.92,0,0,0,10.13,5,3.32,3.32,0,0,1,3.21,3.29A3.06,3.06,0,0,1,854,32.09a3.55,3.55,0,0,1-1.22-2.66h-9.86a8.56,8.56,0,0,0,.06,1.3,13,13,0,0,0,13,12.07c.19,0,.38,0,.57,0A13,13,0,0,0,869,29.73c0-3.1-1-5.31-2.82-8.31H845.81Z" transform="translate(-0.24 -0.06)"/></svg>